<svg width="24" height="24" viewBox="0 0 24 24" fill="none" xmlns="http://www.w3.org/2000/svg">
<g id="24px/channels">
<path id="Vector" d="M17.6617 7.05C18.7801 7.05 19.6867 6.14338 19.6867 5.025C19.6867 3.90662 18.7801 3 17.6617 3C16.5433 3 15.6367 3.90662 15.6367 5.025C15.6367 6.14338 16.5433 7.05 17.6617 7.05Z" stroke="#1C2331" stroke-width="1.5" stroke-linecap="round" stroke-linejoin="round"/>
<path id="Vector_2" d="M17.6617 14.025C18.7801 14.025 19.6867 13.1184 19.6867 12C19.6867 10.8816 18.7801 9.97498 17.6617 9.97498C16.5433 9.97498 15.6367 10.8816 15.6367 12C15.6367 13.1184 16.5433 14.025 17.6617 14.025Z" stroke="#1C2331" stroke-width="1.5" stroke-linecap="round" stroke-linejoin="round"/>
<path id="Vector_3" d="M5.51133 14.025C6.6297 14.025 7.53633 13.1184 7.53633 12C7.53633 10.8816 6.6297 9.97498 5.51133 9.97498C4.39295 9.97498 3.48633 10.8816 3.48633 12C3.48633 13.1184 4.39295 14.025 5.51133 14.025Z" stroke="#1C2331" stroke-width="1.5" stroke-linecap="round" stroke-linejoin="round"/>
<path id="Vector_4" d="M17.6617 21C18.7801 21 19.6867 20.0933 19.6867 18.975C19.6867 17.8566 18.7801 16.95 17.6617 16.95C16.5433 16.95 15.6367 17.8566 15.6367 18.975C15.6367 20.0933 16.5433 21 17.6617 21Z" stroke="#1C2331" stroke-width="1.5" stroke-linecap="round" stroke-linejoin="round"/>
<path id="Vector_5" d="M15.6359 5.02502H13.3859C12.3914 5.02502 11.5859 5.83052 11.5859 6.82502V17.175C11.5859 18.1695 12.3914 18.975 13.3859 18.975H15.6359" stroke="#1C2331" stroke-width="1.5" stroke-linecap="round" stroke-linejoin="round"/>
<path id="Vector_6" d="M15.6352 12H7.53516" stroke="#1C2331" stroke-width="1.5" stroke-linecap="round" stroke-linejoin="round"/>
</g>
</svg>
