<svg width="22" height="16" viewBox="0 0 22 16" fill="none" xmlns="http://www.w3.org/2000/svg">
<g id="Group">
<g id="Group_2">
<g id="Group_3">
<path id="Vector" fill-rule="evenodd" clip-rule="evenodd" d="M15.6699 9.13C17.0399 10.06 17.9999 11.32 17.9999 13V16H20.9999C21.5499 16 21.9999 15.55 21.9999 15V13C21.9999 10.82 18.4299 9.53 15.6699 9.13Z" fill="#1C2331"/>
</g>
<g id="Group_4">
<path id="Vector_2" d="M8 8C10.2091 8 12 6.20914 12 4C12 1.79086 10.2091 0 8 0C5.79086 0 4 1.79086 4 4C4 6.20914 5.79086 8 8 8Z" fill="#1C2331"/>
</g>
<g id="Group_5">
<path id="Vector_3" fill-rule="evenodd" clip-rule="evenodd" d="M13.9999 8C16.2099 8 17.9999 6.21 17.9999 4C17.9999 1.79 16.2099 0 13.9999 0C13.5299 0 13.0899 0.0999998 12.6699 0.24C13.4999 1.27 13.9999 2.58 13.9999 4C13.9999 5.42 13.4999 6.73 12.6699 7.76C13.0899 7.9 13.5299 8 13.9999 8Z" fill="#1C2331"/>
</g>
<g id="Group_6">
<path id="Vector_4" fill-rule="evenodd" clip-rule="evenodd" d="M8 9C5.33 9 0 10.34 0 13V15C0 15.55 0.45 16 1 16H15C15.55 16 16 15.55 16 15V13C16 10.34 10.67 9 8 9Z" fill="#1C2331"/>
</g>
</g>
</g>
</svg>
